<svg version="1.0" xmlns="http://www.w3.org/2000/svg"
 width="32" height="37" viewBox="0 0 613.000000 508.000000"
 preserveAspectRatio="xMidYMid meet" >

<g transform="translate(0.000000,508.000000) scale(0.100000,-0.100000)"
fill="#000000" stroke="none">
<path d="M2735 4281 c-203 -93 -556 -254 -784 -358 -245 -112 -419 -197 -427
-209 -28 -44 -14 -52 472 -274 258 -117 512 -235 564 -261 183 -91 498 -229
542 -238 25 -4 61 -6 79 -3 31 4 556 236 605 267 12 8 122 60 245 116 123 56
253 115 289 131 36 17 103 47 150 68 47 21 133 61 193 89 100 47 107 52 107
79 0 16 -6 34 -12 40 -7 5 -137 66 -288 135 -151 69 -414 189 -585 267 -693
316 -701 320 -741 320 -29 0 -136 -45 -409 -169z"/>
<path d="M2040 2979 c0 -218 4 -346 12 -377 9 -38 25 -61 82 -117 123 -122
325 -201 634 -251 135 -21 450 -29 602 -15 414 38 745 173 832 340 l28 53 0
344 c0 189 -3 344 -7 344 -5 0 -224 -99 -489 -220 -506 -231 -540 -243 -642
-228 -37 6 -205 77 -546 233 -270 124 -495 225 -499 225 -4 0 -7 -149 -7 -331z"/>
<path d="M4318 2778 c-3 -186 -4 -195 -30 -248 -90 -184 -379 -326 -784 -387
-168 -25 -573 -25 -734 0 -421 65 -696 203 -786 392 -22 46 -24 63 -24 204 0
118 -3 152 -12 148 -18 -7 -605 -271 -929 -419 -310 -140 -345 -164 -403 -281
-99 -202 -24 -442 171 -540 26 -14 224 -96 438 -182 749 -302 1023 -413 1460
-591 l440 -179 100 0 100 0 190 77 c578 234 1220 494 1665 672 318 128 326
132 350 181 17 36 27 85 16 85 -4 0 -1723 -693 -2091 -844 -142 -58 -155 -61
-230 -61 -78 1 -87 4 -320 99 -132 54 -391 159 -575 233 -985 399 -1401 567
-1450 586 -67 26 -142 98 -173 165 -32 71 -30 180 5 247 31 60 77 105 138 137
37 19 60 23 130 22 79 0 93 -4 205 -51 66 -28 318 -131 560 -228 758 -306
1125 -455 1265 -513 124 -51 141 -55 215 -56 l80 0 450 182 c248 101 738 300
1090 442 352 142 652 264 667 271 32 14 43 40 29 66 -5 11 -100 59 -218 112
-206 93 -450 203 -798 361 -99 45 -185 84 -192 86 -8 4 -12 -45 -15 -188z"/>
<path d="M953 2114 c-11 -29 10 -45 117 -88 58 -24 278 -113 490 -199 212 -85
653 -264 980 -397 555 -226 600 -242 671 -247 l76 -5 264 105 c145 59 365 147
489 197 124 50 466 188 760 307 693 279 630 251 630 279 0 13 -8 25 -18 28
-17 6 -130 -38 -1297 -509 -242 -98 -528 -213 -635 -256 -165 -67 -204 -79
-253 -79 -61 0 -33 -11 -927 352 -135 54 -405 164 -600 243 -195 79 -433 175
-529 214 -96 39 -183 71 -193 71 -10 0 -21 -7 -25 -16z"/>
<path d="M953 1874 c-3 -9 -2 -23 3 -31 5 -8 176 -82 379 -165 204 -82 552
-223 775 -313 223 -90 545 -221 715 -290 278 -114 318 -127 386 -132 86 -6 24
-28 724 255 204 82 534 216 735 297 794 320 760 305 760 331 0 34 -31 38 -97
10 -32 -13 -265 -107 -518 -209 -253 -102 -579 -233 -725 -292 -849 -342 -807
-326 -864 -326 -46 0 -120 27 -561 206 -280 113 -705 285 -944 381 -240 97
-501 203 -580 235 -153 63 -178 68 -188 43z"/>
</g>
</svg>