<?xml version="1.0" standalone="no"?>
<!DOCTYPE svg PUBLIC "-//W3C//DTD SVG 20010904//EN"
 "http://www.w3.org/TR/2001/REC-SVG-20010904/DTD/svg10.dtd">
<svg version="1.0" xmlns="http://www.w3.org/2000/svg"
 width="557.000000pt" height="448.000000pt" viewBox="0 0 557.000000 448.000000"
 preserveAspectRatio="xMidYMid meet">

<g transform="translate(0.000000,448.000000) scale(0.100000,-0.100000)"
fill="#000000" stroke="none">
<path d="M2503 4275 c-499 -60 -918 -266 -1264 -621 -326 -335 -527 -758 -579
-1217 -14 -119 -14 -356 0 -477 68 -603 408 -1156 920 -1499 655 -439 1526
-465 2205 -66 364 214 641 513 825 890 251 513 283 1086 92 1620 -257 718
-903 1251 -1652 1360 -150 22 -411 27 -547 10z m482 -26 c143 -18 367 -75 493
-125 291 -116 494 -248 711 -464 391 -388 611 -911 611 -1458 0 -865 -543
-1643 -1355 -1940 -238 -87 -447 -123 -710 -123 -332 0 -599 61 -901 207 -332
159 -608 401 -821 720 -61 90 -160 280 -201 384 -40 100 -90 287 -113 417 -32
183 -32 483 0 666 63 360 192 652 420 947 179 233 436 439 716 575 352 171
768 241 1150 194z"/>
<path d="M2530 4174 c-696 -82 -1282 -496 -1580 -1116 -110 -230 -169 -452
-191 -719 -32 -382 72 -819 278 -1163 62 -104 197 -277 282 -363 293 -295 624
-472 1058 -565 97 -21 133 -23 363 -22 278 0 323 6 558 75 435 125 822 409
1079 789 126 186 202 351 267 577 132 459 85 968 -129 1408 -244 499 -695 876
-1232 1029 -196 57 -275 68 -503 71 -118 2 -231 1 -250 -1z m360 -24 c438 -39
839 -212 1160 -502 310 -280 513 -638 606 -1068 23 -105 28 -157 32 -326 2
-125 0 -235 -7 -290 -38 -286 -136 -562 -283 -798 -294 -471 -775 -794 -1328
-893 -208 -37 -462 -37 -670 0 -470 84 -887 330 -1188 699 -204 252 -345 564
-409 902 -22 117 -25 512 -5 626 38 212 104 414 194 588 240 466 633 803 1133
971 251 84 503 114 765 91z"/>
<path d="M2470 4063 c-834 -127 -1471 -761 -1595 -1588 -37 -244 -17 -550 52
-790 279 -978 1275 -1552 2271 -1309 431 105 847 398 1099 774 323 482 407
1081 228 1635 -43 132 -143 339 -220 454 -194 290 -441 503 -760 657 -187 90
-342 137 -556 168 -133 20 -390 19 -519 -1z m436 -14 c279 -27 554 -117 789
-257 225 -134 468 -372 607 -592 272 -435 355 -951 233 -1457 -80 -331 -284
-675 -536 -904 -556 -503 -1303 -634 -1989 -348 -563 235 -964 731 -1097 1354
-25 120 -27 147 -27 355 0 208 2 235 27 355 109 514 394 929 831 1214 234 152
557 259 843 280 172 12 198 12 319 0z"/>
<path d="M2495 3806 c-175 -30 -304 -70 -472 -147 -92 -42 -229 -127 -220
-136 4 -3 29 11 56 30 124 89 231 121 406 121 166 0 279 -33 442 -130 31 -18
33 -18 60 -1 174 111 396 158 573 122 113 -23 162 -42 249 -99 81 -52 106 -57
36 -7 -118 85 -372 189 -567 232 -121 27 -442 35 -563 15z m455 -10 c118 -16
228 -43 341 -84 l77 -27 -157 0 c-123 0 -169 -4 -216 -19 -77 -24 -172 -67
-221 -100 l-38 -25 -30 20 c-51 34 -188 95 -246 110 -35 9 -109 14 -202 14
-80 0 -145 1 -144 2 6 7 177 63 235 78 169 44 411 56 601 31z"/>
<path d="M2211 3489 c-13 -5 -33 -7 -45 -4 -15 5 -17 4 -8 -3 11 -7 5 -19 -27
-53 -22 -24 -38 -46 -35 -49 3 -2 21 15 41 38 21 25 41 41 49 38 8 -3 14 1 14
9 0 19 77 20 101 2 26 -20 32 -54 15 -89 -16 -31 -16 -31 4 -13 33 30 24 84
-19 112 -37 25 -53 27 -90 12z"/>
<path d="M3170 3487 c-35 -18 -49 -77 -26 -111 18 -29 84 -66 117 -66 19 0 20
2 8 16 -7 9 -15 12 -17 6 -6 -18 -59 7 -87 40 -30 36 -31 57 -4 87 17 18 30
21 67 19 30 -2 46 -7 45 -15 -2 -7 3 -10 10 -7 19 7 93 -75 167 -186 138 -207
207 -271 308 -286 85 -13 178 49 201 133 16 55 13 145 -5 199 -8 25 -13 48
-10 51 2 3 30 -19 60 -49 31 -30 56 -51 56 -48 0 15 -146 140 -164 140 -4 0 2
-14 15 -31 28 -40 49 -111 49 -168 0 -171 -126 -257 -275 -187 -59 27 -104 78
-215 241 -143 213 -214 265 -300 222z"/>
<path d="M3328 3483 c7 -3 16 -2 19 1 4 3 -2 6 -13 5 -11 0 -14 -3 -6 -6z"/>
<path d="M3398 3483 c7 -3 16 -2 19 1 4 3 -2 6 -13 5 -11 0 -14 -3 -6 -6z"/>
<path d="M1498 3366 c-73 -58 -108 -105 -113 -153 -4 -35 -4 -35 4 -7 11 43
63 115 105 147 45 35 64 36 42 2 -17 -25 -22 -46 -8 -29 5 5 19 26 31 47 31
51 11 48 -61 -7z"/>
<path d="M2070 3361 c0 -5 -6 -16 -12 -23 -7 -7 -40 -54 -73 -103 -71 -106
-87 -127 -139 -179 -22 -21 -31 -34 -20 -28 10 6 35 28 55 49 48 50 213 293
199 293 -5 0 -10 -4 -10 -9z"/>
<path d="M1512 3290 c0 -14 2 -19 5 -12 2 6 2 18 0 25 -3 6 -5 1 -5 -13z"/>
<path d="M4071 3234 c0 -11 3 -14 6 -6 3 7 2 16 -1 19 -3 4 -6 -2 -5 -13z"/>
<path d="M1502 3205 c0 -16 2 -22 5 -12 2 9 2 23 0 30 -3 6 -5 -1 -5 -18z"/>
<path d="M4080 3157 c0 -36 4 -56 10 -52 13 8 13 75 0 95 -7 11 -10 -2 -10
-43z"/>
<path d="M1512 3135 c0 -16 2 -22 5 -12 2 9 2 23 0 30 -3 6 -5 -1 -5 -18z"/>
<path d="M1385 3107 c6 -72 62 -109 160 -105 70 2 79 8 40 26 -13 6 -31 25
-40 42 -8 16 -18 30 -21 30 -7 0 24 -58 36 -65 42 -26 -51 -35 -100 -10 -33
17 -66 60 -73 95 -2 14 -3 8 -2 -13z"/>
<path d="M4071 3078 c-1 -25 -59 -68 -94 -69 -25 -1 -27 -3 -9 -6 48 -9 122
46 108 80 -2 7 -5 5 -5 -5z"/>
<path d="M1625 2990 c3 -5 29 -10 57 -10 64 0 60 5 -10 14 -37 5 -52 4 -47 -4z"/>
<path d="M1780 2425 c0 -52 -1 -55 -25 -55 -14 0 -41 -6 -60 -14 -48 -20 -57
-60 -53 -229 3 -138 3 -139 31 -163 24 -21 38 -24 103 -24 l74 0 0 270 0 270
-35 0 -35 0 0 -55z m-2 -273 l3 -143 -33 3 -33 3 -3 129 c-1 72 0 136 3 144 3
8 16 12 32 10 l28 -3 3 -143z"/>
<path d="M2890 2250 c0 -251 4 -275 55 -298 48 -22 65 -16 65 22 0 28 -4 35
-22 38 l-23 3 -3 233 -2 232 -35 0 -35 0 0 -230z"/>
<path d="M3340 2426 c0 -49 -2 -55 -22 -58 -18 -2 -24 -11 -26 -35 -3 -30 -1
-33 22 -33 l26 0 0 -131 c0 -147 12 -189 61 -214 41 -22 49 -19 49 18 0 21 -7
36 -20 45 -18 11 -20 23 -20 147 l0 135 25 0 c22 0 25 4 25 35 0 31 -3 35 -25
35 -24 0 -25 3 -25 55 l0 55 -35 0 -35 0 0 -54z"/>
<path d="M3520 2425 c0 -32 2 -35 30 -35 28 0 30 3 30 35 0 32 -2 35 -30 35
-28 0 -30 -3 -30 -35z"/>
<path d="M3890 2160 l0 -220 35 0 35 0 2 178 c3 149 5 177 18 177 13 0 15 -28
18 -177 l2 -178 35 0 35 0 0 178 c0 122 -4 185 -13 202 -14 28 -84 59 -134 59
l-33 1 0 -220z"/>
<path d="M1464 2363 c-12 -2 -32 -15 -45 -29 -23 -25 -24 -31 -24 -179 0 -148
1 -154 24 -179 65 -69 171 -24 171 74 0 26 -3 30 -28 30 -23 0 -30 -6 -37 -32
-8 -26 -15 -33 -35 -33 -24 0 -25 2 -28 83 l-3 82 66 0 65 0 0 65 c0 57 -3 69
-25 90 -13 14 -31 25 -39 25 -8 0 -20 2 -28 4 -7 2 -23 1 -34 -1z m61 -83 c9
-28 -2 -40 -36 -40 -24 0 -29 4 -29 23 0 30 7 37 36 37 14 0 25 -8 29 -20z"/>
<path d="M2419 2342 c-24 -21 -32 -38 -36 -76 -6 -46 -4 -49 43 -99 98 -103
99 -104 86 -133 -9 -18 -19 -24 -35 -22 -18 2 -23 10 -25 46 -3 42 -4 43 -35
40 -31 -3 -32 -4 -31 -52 0 -42 5 -53 32 -77 36 -32 69 -36 112 -14 39 20 50
43 50 102 0 47 -3 51 -65 113 -56 55 -65 70 -63 95 6 57 68 37 68 -22 0 -19 5
-23 30 -23 28 0 30 2 30 41 0 51 -13 75 -50 94 -43 22 -76 18 -111 -13z"/>
<path d="M2703 2359 c-57 -17 -63 -36 -63 -207 l0 -154 29 -29 c40 -40 89 -40
133 0 l33 29 3 140 c4 161 -6 194 -63 218 -19 8 -36 14 -37 13 -2 0 -17 -5
-35 -10z m55 -71 c8 -8 12 -54 12 -140 0 -110 -2 -130 -16 -135 -9 -3 -24 -2
-33 4 -13 8 -17 33 -19 133 -3 121 4 150 32 150 7 0 17 -5 24 -12z"/>
<path d="M3520 2155 l0 -215 30 0 30 0 0 215 0 215 -30 0 -30 0 0 -215z"/>
<path d="M3713 2363 c-12 -2 -33 -16 -47 -30 -26 -25 -26 -28 -26 -180 l0
-155 29 -29 c47 -46 121 -36 154 21 24 40 24 277 1 321 -12 24 -72 64 -86 58
-2 -1 -13 -4 -25 -6z m45 -75 c8 -8 12 -54 12 -140 0 -110 -2 -130 -16 -135
-9 -3 -24 -2 -33 4 -13 8 -17 32 -19 127 -3 115 5 156 31 156 7 0 18 -5 25
-12z"/>
<path d="M1900 2181 c0 -159 2 -181 18 -202 20 -23 88 -49 134 -49 l27 0 0
215 0 215 -34 0 -35 0 0 -159 c0 -165 -3 -191 -25 -191 -22 0 -25 26 -25 191
l0 159 -30 0 -30 0 0 -179z"/>
<path d="M3060 2182 c0 -141 3 -182 15 -199 16 -23 93 -53 137 -53 l28 0 0
215 0 215 -35 0 -35 0 -2 -172 c-3 -146 -5 -173 -18 -173 -13 0 -15 27 -18
173 l-2 172 -35 0 -35 0 0 -178z"/>
<path d="M2130 2215 l0 -25 100 0 100 0 0 25 0 25 -100 0 -100 0 0 -25z"/>
<path d="M3687 1396 c-75 -37 -95 -60 -261 -296 -41 -58 -88 -118 -106 -135
-31 -29 -32 -29 -46 -11 -8 11 -14 15 -14 10 0 -6 5 -15 11 -21 16 -16 -5 -25
-53 -25 -28 1 -45 7 -59 23 -10 12 -19 17 -19 11 0 -17 29 -41 57 -48 13 -4
43 -1 66 7 31 10 41 11 45 1 2 -7 13 -12 25 -12 21 1 20 2 -4 15 l-26 14 44
48 c24 26 77 98 118 158 91 136 165 220 216 245 26 14 58 20 99 20 38 0 59 4
55 10 -11 19 -98 10 -148 -14z"/>
<path d="M1616 1403 c-4 -4 -36 -6 -72 -5 -115 5 -174 -51 -174 -163 0 -79 35
-135 130 -206 63 -48 91 -53 63 -11 -19 27 -37 64 -46 92 -4 11 -6 11 -6 -3
-1 -10 6 -32 15 -48 8 -17 13 -33 10 -36 -12 -12 -115 89 -136 133 -49 101 1
218 98 231 23 3 49 3 58 -1 15 -6 15 -8 2 -24 -9 -9 -21 -28 -27 -42 -10 -21
-10 -22 1 -8 7 9 20 25 27 37 23 32 38 33 90 6 63 -32 126 -102 210 -239 95
-153 162 -215 233 -218 37 -1 109 22 103 33 -3 4 2 20 10 35 19 38 19 95 -1
120 -15 19 -16 19 -8 -1 16 -43 15 -83 -1 -115 l-17 -32 -40 38 c-22 22 -58
65 -79 97 -22 31 -42 57 -46 57 -11 0 60 -101 110 -157 16 -17 29 -35 30 -39
3 -13 -53 -23 -87 -17 -45 9 -131 101 -201 216 -73 121 -150 207 -204 232 -23
10 -41 22 -41 27 0 4 29 8 64 8 50 0 76 -6 111 -25 26 -13 42 -18 36 -11 -24
28 -79 46 -143 46 -36 0 -68 -3 -72 -7z"/>
<path d="M3855 1392 c3 -3 -2 -10 -11 -17 -13 -9 -10 -11 17 -7 31 3 37 -1 62
-39 15 -24 27 -36 27 -29 0 8 -9 26 -20 40 -28 36 -25 40 23 40 51 0 104 -30
118 -66 5 -15 12 -24 15 -21 13 12 -28 66 -62 82 -33 15 -183 30 -169 17z"/>
<path d="M3768 1332 c-44 -32 -89 -89 -180 -227 -68 -103 -121 -161 -173 -188
-26 -14 -27 -16 -8 -17 29 0 134 98 169 158 89 153 145 223 229 286 11 9 16
15 10 15 -5 0 -27 -12 -47 -27z"/>
<path d="M1926 1243 c80 -106 95 -123 57 -63 -42 66 -106 150 -115 150 -5 0
22 -39 58 -87z"/>
<path d="M1512 1270 c0 -14 2 -19 5 -12 2 6 2 18 0 25 -3 6 -5 1 -5 -13z"/>
<path d="M3951 1258 c-1 -16 4 -28 9 -28 12 0 12 8 0 35 -8 18 -9 17 -9 -7z"/>
<path d="M4093 1235 c0 -27 2 -38 4 -22 2 15 2 37 0 50 -2 12 -4 0 -4 -28z"/>
<path d="M3953 1130 c-6 -32 -21 -72 -32 -89 -41 -57 -18 -68 45 -22 68 50
130 128 121 154 -2 6 -14 -10 -28 -37 -15 -32 -44 -64 -81 -93 -62 -48 -69
-45 -38 15 18 34 39 132 29 132 -3 0 -10 -27 -16 -60z"/>
<path d="M3261 1074 c0 -11 3 -14 6 -6 3 7 2 16 -1 19 -3 4 -6 -2 -5 -13z"/>
<path d="M2295 1040 c10 -11 20 -20 23 -20 3 0 -3 9 -13 20 -10 11 -20 20 -23
20 -3 0 3 -9 13 -20z"/>
<path d="M2327 985 c-4 -8 -2 -17 3 -20 6 -4 10 3 10 14 0 25 -6 27 -13 6z"/>
<path d="M2265 920 c-46 -17 -48 -18 -19 -19 18 -1 42 8 55 19 28 23 29 23
-36 0z"/>
<path d="M1825 855 c47 -38 221 -129 320 -168 363 -143 794 -146 1160 -10 130
48 385 186 371 201 -2 2 -33 -15 -68 -37 -138 -87 -248 -121 -396 -121 -145 0
-294 42 -416 117 -57 35 -59 36 -85 19 -55 -36 -189 -96 -251 -113 -47 -13
-102 -18 -200 -18 -166 0 -235 19 -364 100 -95 59 -119 70 -71 30z m1040 -70
c130 -61 174 -70 348 -70 86 0 157 -1 157 -2 0 -1 -42 -15 -92 -32 -381 -124
-734 -122 -1099 7 l-77 27 157 0 c136 0 166 3 231 23 73 24 186 76 225 105 18
14 23 14 50 -4 17 -12 62 -35 100 -54z"/>
</g>
</svg>
