<?xml version="1.0" standalone="no"?>
<!DOCTYPE svg PUBLIC "-//W3C//DTD SVG 20010904//EN"
 "http://www.w3.org/TR/2001/REC-SVG-20010904/DTD/svg10.dtd">
<svg version="1.0" xmlns="http://www.w3.org/2000/svg"
 width="624.000000pt" height="502.000000pt" viewBox="0 0 624.000000 502.000000"
 preserveAspectRatio="xMidYMid meet">

<g transform="translate(0.000000,502.000000) scale(0.100000,-0.100000)"
fill="#000000" stroke="none">
<path d="M2815 4795 c-1040 -113 -1882 -902 -2059 -1930 -87 -505 -9 -1016
226 -1472 334 -651 963 -1113 1683 -1237 503 -87 999 -11 1463 223 219 111
405 246 588 429 544 539 788 1303 658 2057 -93 543 -389 1055 -809 1400 -498
410 -1120 598 -1750 530z m585 -46 c510 -80 937 -296 1295 -654 358 -357 570
-777 655 -1295 29 -177 29 -493 0 -670 -44 -264 -106 -463 -214 -685 -293
-600 -849 -1052 -1495 -1215 -216 -55 -345 -70 -576 -70 -231 0 -360 15 -576
70 -811 205 -1465 862 -1663 1670 -51 212 -66 339 -66 565 0 231 15 360 70
576 185 733 741 1343 1455 1598 355 126 759 166 1115 110z"/>
<path d="M2840 4679 c-1020 -112 -1818 -875 -1977 -1890 -24 -158 -24 -490 0
-648 153 -978 900 -1725 1878 -1878 82 -13 172 -17 324 -17 238 0 350 13 561
68 779 203 1387 811 1590 1590 55 211 68 323 68 561 0 233 -14 356 -64 551
-223 864 -938 1512 -1820 1649 -125 19 -441 27 -560 14z m341 -29 c252 -15
466 -61 692 -151 746 -297 1268 -975 1367 -1775 14 -113 14 -405 0 -520 -30
-240 -101 -480 -210 -701 -273 -558 -756 -964 -1360 -1142 -373 -110 -837
-110 -1210 0 -604 178 -1087 584 -1360 1142 -109 221 -180 461 -210 702 -14
112 -14 414 0 520 34 268 100 484 218 720 335 671 972 1112 1731 1199 149 17
146 17 342 6z"/>
<path d="M2935 4574 c-329 -26 -615 -110 -890 -261 -125 -69 -164 -95 -292
-195 -121 -94 -261 -237 -362 -368 -228 -295 -366 -628 -422 -1020 -26 -181
-14 -484 27 -690 49 -242 171 -537 306 -740 120 -179 302 -374 478 -509 295
-228 628 -366 1020 -422 181 -26 484 -14 690 27 451 91 886 350 1186 707 266
317 424 675 485 1097 26 181 14 484 -27 690 -48 237 -159 510 -298 728 -130
205 -386 463 -606 610 -250 167 -578 289 -890 331 -86 12 -331 21 -405 15z
m414 -49 c702 -102 1288 -532 1592 -1170 72 -151 103 -239 139 -390 40 -167
60 -331 60 -500 0 -808 -454 -1527 -1185 -1876 -291 -139 -563 -200 -890 -200
-327 0 -599 61 -890 200 -561 268 -968 759 -1119 1352 -123 481 -74 986 138
1423 113 232 246 417 427 591 328 316 726 508 1175 569 139 19 422 19 553 1z"/>
<path d="M2940 4284 c-299 -34 -483 -86 -723 -205 -91 -45 -207 -119 -207
-132 0 -13 18 -4 104 51 94 62 160 87 279 108 210 37 434 -11 638 -137 l36
-23 59 36 c302 183 663 180 925 -8 27 -20 54 -34 61 -32 21 7 -103 87 -231
150 -159 77 -352 140 -509 167 -117 20 -357 34 -432 25z m410 -39 c52 -9 129
-25 170 -36 80 -21 252 -80 248 -85 -2 -1 -28 2 -58 8 -88 16 -261 4 -363 -26
-84 -25 -187 -72 -253 -115 l-30 -20 -38 26 c-77 51 -201 102 -306 123 -85 18
-128 21 -224 17 l-119 -4 79 29 c137 50 264 77 484 102 66 8 315 -4 410 -19z"/>
<path d="M2333 3923 c9 -2 25 -2 35 0 9 3 1 5 -18 5 -19 0 -27 -2 -17 -5z"/>
<path d="M2400 3910 c0 -6 7 -10 15 -10 8 0 15 -2 15 -4 0 -2 -22 -28 -50 -57
-27 -30 -95 -119 -150 -199 -150 -219 -201 -266 -308 -281 -61 -8 -142 8 -107
22 17 6 15 8 -11 8 -52 1 -91 64 -100 163 -4 35 -10 70 -15 78 -14 27 -23 -39
-10 -81 6 -21 16 -57 23 -79 6 -22 19 -48 30 -59 10 -11 18 -23 18 -26 0 -3
-21 -5 -47 -5 -54 0 -105 26 -124 62 -54 101 -8 239 105 318 42 28 62 30 35 3
-16 -16 -39 -102 -29 -108 5 -3 12 7 16 22 4 15 19 52 35 82 15 30 26 58 23
63 -15 24 -166 -105 -201 -172 -25 -46 -32 -146 -13 -196 8 -20 52 -71 74 -85
2 -1 186 -19 260 -25 43 -4 72 -2 79 5 6 6 18 11 27 11 50 1 158 118 282 305
84 128 157 208 181 199 9 -3 17 -12 17 -20 0 -8 5 -14 10 -14 7 0 7 7 0 21 -7
11 -9 27 -6 35 10 27 97 12 118 -20 17 -25 7 -75 -19 -107 -21 -25 -23 -30 -8
-21 53 27 72 86 46 136 -21 39 -98 59 -141 36 -12 -7 -28 -7 -44 0 -17 6 -26
6 -26 0z"/>
<path d="M3538 3900 c-23 -17 -28 -30 -28 -64 0 -50 19 -80 68 -105 49 -24
102 -36 102 -22 0 6 -4 11 -9 11 -5 0 -12 10 -16 23 -6 19 -8 19 -12 5 -5 -22
-16 -22 -53 -3 -32 17 -70 65 -70 89 0 30 46 66 84 66 59 0 68 -7 51 -40 -18
-34 -18 -40 -5 -40 6 0 10 6 10 14 0 7 7 20 16 27 15 12 22 7 64 -38 26 -28
91 -115 145 -192 127 -184 163 -223 237 -260 68 -34 136 -41 191 -18 18 8 38
12 46 9 8 -2 11 0 8 5 -4 6 3 19 14 29 65 58 90 219 51 322 -11 28 -17 52 -12
52 15 0 111 -103 130 -140 39 -76 20 -200 -37 -237 -13 -9 -49 -19 -81 -23
l-57 -7 57 -2 c72 -1 112 20 138 76 28 60 26 137 -4 198 -27 52 -87 119 -126
140 -14 7 -35 23 -48 35 -26 24 -43 19 -24 -8 26 -35 54 -104 60 -150 16 -105
-15 -202 -82 -256 -34 -28 -45 -31 -104 -31 -128 1 -185 49 -362 310 -49 72
-107 148 -129 170 -23 21 -41 43 -41 47 0 4 29 8 64 8 60 0 66 -2 102 -38 58
-57 104 -110 104 -120 0 -4 8 -17 18 -28 9 -10 25 -35 36 -55 25 -47 45 -74
51 -68 11 12 -124 204 -182 260 l-63 60 -77 0 c-43 -1 -105 1 -138 5 -52 5
-64 3 -87 -16z"/>
<path d="M2288 3903 c7 -3 16 -2 19 1 4 3 -2 6 -13 5 -11 0 -14 -3 -6 -6z"/>
<path d="M2199 3832 c-62 -67 -172 -238 -165 -255 2 -7 5 -4 5 6 1 9 5 17 10
17 5 0 11 8 15 18 7 21 25 49 49 76 9 11 17 26 17 33 0 7 5 13 10 13 6 0 10 6
10 14 0 8 26 42 58 75 32 34 55 61 51 61 -4 0 -31 -26 -60 -58z"/>
<path d="M2470 3744 c-13 -34 -13 -44 3 -44 7 0 13 15 14 35 2 41 -4 45 -17 9z"/>
<path d="M2510 3720 c0 -5 7 -7 15 -4 8 4 15 8 15 10 0 2 -7 4 -15 4 -8 0 -15
-4 -15 -10z"/>
<path d="M1981 3523 c-7 -8 -11 -16 -8 -19 2 -2 10 2 17 11 17 20 9 27 -9 8z"/>
<path d="M1848 3403 c7 -3 16 -2 19 1 4 3 -2 6 -13 5 -11 0 -14 -3 -6 -6z"/>
<path d="M1988 2718 l-3 -63 -49 -6 c-37 -4 -55 -12 -72 -33 -23 -26 -24 -33
-24 -197 0 -233 10 -249 155 -249 l75 0 0 305 0 305 -40 0 -39 0 -3 -62z m2
-309 l0 -160 -32 3 -33 3 -3 158 -3 157 36 0 35 0 0 -161z"/>
<path d="M3240 2510 l0 -270 28 -30 c17 -20 40 -33 65 -37 l37 -6 0 42 c0 35
-3 41 -20 41 -13 0 -24 10 -30 26 -6 14 -10 133 -10 265 l0 239 -35 0 -35 0 0
-270z"/>
<path d="M3740 2715 l0 -65 -30 0 c-28 0 -30 -2 -30 -40 0 -38 2 -40 30 -40
l30 0 0 -146 c0 -187 17 -228 103 -249 26 -7 27 -6 27 30 0 27 -7 44 -25 61
-24 22 -25 27 -25 164 l0 140 30 0 c28 0 30 2 30 39 0 36 -3 40 -27 43 -27 3
-28 6 -31 66 l-3 62 -39 0 -40 0 0 -65z"/>
<path d="M3940 2720 l0 -40 40 0 40 0 0 40 0 40 -40 0 -40 0 0 -40z"/>
<path d="M4360 2420 l0 -250 40 0 40 0 0 201 c0 186 1 200 18 197 15 -3 17
-22 20 -201 l2 -197 40 0 40 0 0 211 0 211 -29 29 c-20 19 -40 29 -60 29 -17
0 -31 5 -31 10 0 6 -18 10 -40 10 l-40 0 0 -250z"/>
<path d="M2723 2640 c-42 -25 -53 -48 -53 -113 0 -53 1 -55 75 -135 65 -69 75
-85 69 -107 -8 -31 -18 -38 -44 -30 -16 5 -20 15 -20 51 l0 44 -40 0 -40 0 0
-54 c0 -38 6 -61 20 -78 45 -58 129 -61 174 -7 22 26 26 41 26 93 l0 62 -70
69 c-72 71 -87 108 -56 134 23 19 46 1 52 -40 6 -36 9 -39 40 -39 34 0 34 0
34 48 0 54 -17 85 -60 107 -39 20 -69 19 -107 -5z"/>
<path d="M1607 2639 c-39 -23 -47 -61 -47 -224 0 -173 8 -203 60 -230 37 -19
63 -19 100 0 43 22 60 53 60 107 l0 48 -35 0 c-32 0 -35 -3 -35 -28 0 -41 -24
-70 -47 -56 -15 9 -19 27 -21 98 l-3 86 71 0 70 0 0 76 c0 70 -2 78 -29 105
-25 24 -37 29 -78 29 -26 0 -56 -5 -66 -11z m95 -84 c13 -30 13 -31 -29 -40
-31 -6 -33 -5 -33 23 0 46 43 58 62 17z"/>
<path d="M2120 2468 c0 -101 5 -200 10 -220 12 -43 42 -68 82 -68 15 0 30 -4
33 -10 3 -5 24 -10 46 -10 l39 0 0 245 0 245 -40 0 -40 0 -2 -192 c-3 -185 -4
-193 -23 -193 -19 0 -20 8 -23 193 l-2 192 -40 0 -40 0 0 -182z"/>
<path d="M3002 2634 c-45 -31 -52 -63 -52 -224 0 -168 8 -198 60 -225 58 -30
127 -9 155 46 13 25 16 60 13 196 l-3 165 -33 29 c-37 34 -102 40 -140 13z
m93 -86 c3 -13 4 -81 3 -152 -3 -107 -6 -131 -20 -139 -12 -8 -21 -7 -32 2
-13 11 -16 37 -16 146 0 74 3 140 6 149 10 25 53 20 59 -6z"/>
<path d="M3430 2446 l0 -204 26 -31 c18 -21 35 -31 54 -31 16 0 32 -4 35 -10
3 -5 24 -10 46 -10 l39 0 0 245 0 245 -40 0 -40 0 -2 -192 c-3 -174 -5 -193
-20 -196 -17 -3 -18 11 -18 192 l0 196 -40 0 -40 0 0 -204z"/>
<path d="M3940 2410 l0 -240 40 0 40 0 0 240 0 240 -40 0 -40 0 0 -240z"/>
<path d="M4122 2634 c-44 -31 -52 -63 -52 -219 0 -115 4 -154 16 -181 28 -59
95 -80 154 -49 53 27 60 57 60 236 l0 161 -34 34 c-28 28 -41 34 -78 34 -24 0
-54 -7 -66 -16z m93 -218 c0 -128 -2 -150 -17 -159 -12 -8 -21 -7 -32 2 -13
11 -16 38 -16 150 0 144 6 164 45 159 19 -3 20 -10 20 -152z"/>
<path d="M2380 2485 l0 -35 115 0 115 0 0 35 0 35 -115 0 -115 0 0 -35z"/>
<path d="M1815 1578 c-16 -5 -60 -9 -97 -8 -96 2 -151 -33 -177 -109 -29 -88
-3 -179 73 -256 52 -52 135 -107 148 -99 5 3 -1 21 -13 40 -53 86 -71 181 -48
253 25 76 33 94 56 117 30 30 33 30 92 0 62 -32 134 -111 206 -228 91 -147
104 -164 160 -217 53 -51 117 -78 159 -68 35 9 102 36 89 37 -9 0 -6 13 8 40
17 31 20 53 17 91 -3 28 -12 55 -19 60 -18 11 -23 -4 -10 -30 16 -29 13 -93
-5 -120 l-16 -23 -40 39 c-22 21 -87 106 -144 189 -112 162 -192 251 -252 280
-42 20 -141 27 -187 12z m178 -32 c65 -29 137 -108 250 -276 42 -63 97 -137
122 -165 25 -27 43 -54 42 -60 -2 -5 -25 -11 -51 -13 -34 -2 -56 3 -81 18 -44
27 -121 113 -147 164 -66 129 -183 271 -260 316 -27 14 -45 30 -41 33 16 16
115 6 166 -17z m-243 -4 c0 -5 -8 -16 -18 -26 -11 -9 -24 -35 -31 -59 -7 -23
-17 -56 -22 -73 -17 -58 -8 -116 32 -198 10 -22 18 -41 16 -43 -9 -8 -110 82
-137 123 -33 47 -46 111 -36 168 8 39 48 93 80 106 28 11 116 12 116 2z"/>
<path d="M4130 1569 c-25 -11 -56 -30 -69 -42 -42 -39 -135 -159 -203 -262
-37 -55 -90 -125 -118 -155 l-51 -55 -19 24 c-19 22 -20 22 -20 3 0 -12 5 -24
10 -27 21 -13 -2 -25 -46 -25 -35 0 -51 6 -70 25 -29 29 -34 30 -34 11 0 -42
98 -70 155 -44 19 9 28 9 37 0 7 -7 42 -12 81 -12 l69 0 63 61 c55 53 93 105
165 228 26 45 97 135 126 162 42 38 101 69 131 69 38 0 72 -52 87 -134 5 -26
11 -35 18 -28 13 13 -14 110 -42 145 -11 14 -20 27 -20 30 0 7 82 1 105 -8 54
-21 95 -88 95 -154 0 -41 -36 -123 -72 -162 -24 -27 -102 -89 -112 -89 -3 0 6
22 19 49 28 55 46 171 26 171 -6 0 -11 -17 -11 -42 0 -50 -16 -98 -49 -151
-16 -26 -20 -42 -13 -49 16 -16 71 18 138 87 106 108 122 212 48 311 -29 39
-101 66 -153 58 -24 -4 -51 0 -75 10 -52 22 -140 19 -196 -5z m185 -9 c3 -5
-20 -21 -51 -37 -70 -34 -112 -81 -229 -258 -144 -218 -214 -271 -309 -235
l-26 9 46 48 c25 26 89 110 141 186 168 243 230 296 355 297 37 0 69 -4 73
-10z"/>
<path d="M3650 1198 c0 -19 2 -20 10 -8 13 19 13 30 0 30 -5 0 -10 -10 -10
-22z"/>
<path d="M2508 1203 c6 -2 18 -2 25 0 6 3 1 5 -13 5 -14 0 -19 -2 -12 -5z"/>
<path d="M3603 1203 c9 -2 23 -2 30 0 6 3 -1 5 -18 5 -16 0 -22 -2 -12 -5z"/>
<path d="M2575 1163 c53 -58 24 -133 -52 -133 -17 0 -35 -4 -38 -10 -4 -6 11
-10 36 -10 54 0 99 38 99 83 0 30 -42 97 -61 97 -5 0 2 -12 16 -27z"/>
<path d="M3535 1164 c-14 -15 -25 -34 -24 -43 0 -13 2 -12 12 3 7 11 22 30 34
43 12 13 18 23 12 23 -5 0 -21 -12 -34 -26z"/>
<path d="M3630 1141 c0 -25 6 -27 13 -6 4 8 2 17 -3 20 -6 4 -10 -3 -10 -14z"/>
<path d="M2010 982 c0 -11 152 -104 247 -152 261 -129 503 -184 808 -184 311
0 548 55 827 193 109 54 247 143 231 148 -6 2 -43 -17 -82 -42 -152 -98 -273
-135 -446 -135 -164 0 -338 49 -464 130 -34 22 -64 40 -67 40 -3 0 -24 -13
-47 -29 -173 -118 -433 -169 -648 -127 -89 17 -206 71 -290 132 -45 33 -69 42
-69 26z m1195 -102 c132 -64 220 -84 365 -85 69 0 145 3 170 7 59 10 -113 -55
-220 -82 -290 -74 -639 -73 -910 1 -86 24 -252 80 -248 84 2 2 28 -1 58 -7 88
-16 261 -4 363 26 83 25 184 71 252 114 30 19 30 19 60 0 17 -11 66 -37 110
-58z"/>
</g>
</svg>
